# xmcd
#
# Track frame offsets:
#	150
#	13566
#	25817
#	35983
#	46557
#	59537
#	69799
#	84352
#	97228
#	110957
#	125289
#	138612
#	147440
#	160124
#
# Disc length: 2330 seconds
#
# Revision: 0
# Processed by: cddbd v1.5.1PL0 Copyright (c) Steve Scherf et al.
# Submitted via: QuickRip XP 1.3 Using QuickRip XP for Submission
#
DISCID=c209180e
DTITLE=Roland Cedermark - Roland Cedermark - Spelar Evert Taube
DYEAR=2004
DGENRE=Pop-Folk
TTITLE0=Ellinor Dansar
TTITLE1=Min Älskling
TTITLE2=Brudvals
TTITLE3=Sololà
TTITLE4=Blå Anemonerna
TTITLE5=Ingrid Dardels Polska
TTITLE6=Så Länge Skutan Kan Gå
TTITLE7=Sjösala Vals
TTITLE8=Så Skimrande Var Aldrig Havet
TTITLE9=Fragancia
TTITLE10=Bibbi
TTITLE11=Linnéa
TTITLE12=Västanvind
TTITLE13=Stockholmsmelodi
EXTD=
EXTT0=
EXTT1=
EXTT2=
EXTT3=
EXTT4=
EXTT5=
EXTT6=
EXTT7=
EXTT8=
EXTT9=
EXTT10=
EXTT11=
EXTT12=
EXTT13=
PLAYORDER=
